<!-- Generated by IcoMoon.io -->
<svg version="1.1" xmlns="http://www.w3.org/2000/svg" width="26" height="32" viewBox="0 0 26 32">
<title>grupo-1</title>
<path d="M10.953 1.934h-0.087c-0.134-0.008-0.269-0.011-0.403-0.015v0h-0.291c-0.254 0-0.513 0.006-0.771 0.020-0.019-0.001-0.039-0.001-0.058 0-2.332 0.132-4.618 0.715-6.73 1.717l-0.277 0.133v14.17l0.648-0.22c0.568-0.195 1.174-0.371 1.8-0.534 1.694-0.435 3.433-0.666 5.181-0.688v1.862c-0.232 0.002-0.457 0.008-0.682 0.020h-0.053c-1.345 0.074-2.68 0.279-3.986 0.612-1.654 0.414-3.249 1.036-4.749 1.85v-18.174c1.557-0.908 3.234-1.59 4.982-2.026 1.534-0.396 3.111-0.599 4.695-0.605h0.274c0.327 0.008 0.646 0.023 0.946 0.046 0.789 0.055 1.572 0.18 2.339 0.373v1.833c-0.745-0.174-1.503-0.288-2.267-0.342-0.015-0.001-0.031-0.003-0.046-0.004-0.158-0.013-0.316-0.027-0.464-0.027zM14.178 3.807c0.406 0.031 0.827 0.046 1.253 0.046 1.665-0.006 3.323-0.219 4.936-0.633 1.653-0.416 3.248-1.038 4.747-1.852v17.85c-1.558 0.908-3.236 1.59-4.983 2.026-1.534 0.395-3.111 0.597-4.695 0.604-1.2 0.010-2.397-0.131-3.562-0.42v-17.966c0.275 0.063 0.559 0.122 0.847 0.171 0.473 0.080 0.971 0.138 1.457 0.174zM23.262 3.945l-0.648 0.218c-0.596 0.2-1.196 0.379-1.8 0.539-1.758 0.452-3.565 0.684-5.38 0.69-0.423 0-0.811-0.011-1.187-0.036l-0.516-0.034v14.577l0.444 0.039c0.411 0.036 0.835 0.054 1.263 0.054 1.429-0.006 2.853-0.19 4.237-0.548 1.14-0.286 2.249-0.684 3.311-1.19l0.277-0.133v-14.175z"></path>
<path d="M1.752 27.072c-0.093-0.097-0.205-0.172-0.329-0.223s-0.257-0.074-0.391-0.069c-0.142-0.002-0.284 0.025-0.416 0.078-0.121 0.048-0.231 0.121-0.324 0.213-0.091 0.093-0.163 0.204-0.209 0.326-0.051 0.128-0.076 0.264-0.074 0.402v2.428c-0.006 0.171 0.027 0.341 0.096 0.498 0.057 0.124 0.14 0.235 0.243 0.325 0.097 0.082 0.211 0.141 0.334 0.173 0.118 0.033 0.24 0.050 0.363 0.050 0.135 0.001 0.269-0.028 0.392-0.085 0.121-0.053 0.231-0.129 0.324-0.225 0.090-0.094 0.162-0.205 0.212-0.326 0.052-0.122 0.078-0.254 0.078-0.387v-0.272h-0.635v0.216c0.002 0.074-0.011 0.147-0.037 0.216-0.021 0.052-0.052 0.098-0.092 0.137-0.039 0.032-0.084 0.056-0.133 0.070-0.043 0.014-0.088 0.022-0.133 0.023-0.057 0.007-0.114-0.002-0.166-0.025s-0.098-0.059-0.132-0.105c-0.060-0.098-0.089-0.211-0.084-0.325v-2.264c-0.004-0.126 0.023-0.25 0.078-0.363 0.033-0.051 0.080-0.092 0.135-0.118s0.116-0.036 0.176-0.028c0.055-0.002 0.109 0.009 0.158 0.033s0.092 0.059 0.125 0.103c0.071 0.093 0.108 0.208 0.105 0.326v0.21h0.628v-0.247c0.001-0.145-0.025-0.289-0.078-0.425-0.047-0.127-0.119-0.243-0.212-0.342z"></path>
<path d="M5.522 27.044c-0.202-0.171-0.458-0.265-0.722-0.267-0.129 0.001-0.257 0.024-0.379 0.068-0.123 0.044-0.237 0.112-0.335 0.199-0.105 0.095-0.189 0.21-0.246 0.34-0.064 0.148-0.095 0.309-0.092 0.47v2.329c-0.004 0.164 0.027 0.327 0.092 0.477 0.057 0.125 0.141 0.236 0.246 0.326 0.097 0.090 0.211 0.16 0.335 0.205 0.121 0.045 0.25 0.068 0.379 0.068s0.258-0.023 0.379-0.068c0.126-0.046 0.243-0.115 0.343-0.205 0.101-0.091 0.183-0.202 0.24-0.326 0.065-0.15 0.097-0.313 0.092-0.477v-2.329c0.003-0.162-0.028-0.322-0.092-0.47-0.056-0.128-0.138-0.244-0.24-0.34zM5.226 30.183c0.005 0.062-0.003 0.125-0.025 0.183s-0.056 0.111-0.101 0.154c-0.084 0.070-0.19 0.109-0.299 0.109s-0.215-0.038-0.299-0.109c-0.045-0.043-0.079-0.096-0.101-0.154s-0.030-0.121-0.025-0.183v-2.329c-0.005-0.062 0.003-0.125 0.025-0.183s0.056-0.111 0.101-0.154c0.084-0.070 0.19-0.109 0.299-0.109s0.215 0.039 0.299 0.109c0.045 0.043 0.079 0.096 0.101 0.154s0.030 0.121 0.025 0.183v2.329z"></path>
<path d="M10.475 31.223v-4.409h-0.61l-0.801 2.334h-0.011l-0.808-2.334h-0.604v4.409h0.63v-2.682h0.011l0.617 1.896h0.314l0.622-1.896h0.011v2.682h0.63z"></path>
<path d="M14.053 27.124c-0.097-0.109-0.219-0.192-0.356-0.241-0.147-0.048-0.302-0.071-0.457-0.068h-0.936v4.409h0.628v-1.722h0.324c0.196 0.009 0.391-0.032 0.567-0.12 0.143-0.079 0.262-0.196 0.345-0.337 0.073-0.117 0.122-0.248 0.144-0.384 0.025-0.166 0.036-0.334 0.034-0.501 0.006-0.212-0.015-0.423-0.062-0.63-0.042-0.153-0.122-0.292-0.232-0.405zM13.729 28.468c-0.003 0.080-0.023 0.158-0.058 0.229-0.036 0.068-0.093 0.122-0.162 0.155-0.093 0.042-0.195 0.061-0.296 0.055h-0.287v-1.499h0.324c0.098-0.005 0.195 0.014 0.283 0.055 0.065 0.037 0.117 0.094 0.147 0.163 0.034 0.077 0.053 0.161 0.055 0.246 0 0.093 0 0.19 0 0.293s0.006 0.208 0 0.303h-0.006z"></path>
<path d="M17.029 26.815h-0.515l-0.971 4.409h0.628l0.185-0.947h0.856l0.185 0.947h0.628l-0.996-4.409zM16.449 29.676l0.309-1.598h0.011l0.308 1.598h-0.628z"></path>
<path d="M21.088 29.471h-0.011l-0.949-2.656h-0.604v4.409h0.628v-2.651h0.013l0.96 2.651h0.591v-4.409h-0.628v2.656z"></path>
<path d="M24.926 26.815l-0.505 1.753h-0.013l-0.505-1.753h-0.665l0.863 2.545v1.863h0.628v-1.863l0.863-2.545h-0.665z"></path>
</svg>
