<!-- Generated by IcoMoon.io -->
<svg version="1.1" xmlns="http://www.w3.org/2000/svg" width="29" height="32" viewBox="0 0 29 32">
<title>grupo</title>
<path d="M4.174 0.060l4.875 4.615-9.049-0.005v22.391h23.652v-8.561l4.87 4.61v-23.050h-24.348zM23.438 17.958l-13.822-13.085h13.822v13.085zM19.146 23.786h-15.404v-15.059h1.089v14.040h14.315v1.020zM7.38 30.043l-0.569 1.172-0.569-1.172h-0.477l0.83 1.563v0.91h0.431v-0.91l0.829-1.563h-0.476zM8.095 32.515l0.2-0.576h0.958l0.202 0.576h0.448l-0.936-2.473h-0.386l-0.934 2.473h0.447zM8.774 30.567l0.358 1.026h-0.717l0.358-1.026zM11.040 31.534c-0.062 0.095-0.093 0.2-0.093 0.314 0 0.208 0.073 0.378 0.219 0.508 0.147 0.129 0.343 0.194 0.588 0.194s0.455-0.066 0.632-0.199l0.139 0.165h0.479l-0.363-0.43c0.143-0.195 0.214-0.444 0.214-0.749h-0.358c0 0.166-0.034 0.318-0.104 0.454l-0.477-0.564 0.168-0.122c0.119-0.086 0.204-0.172 0.257-0.258 0.052-0.087 0.078-0.182 0.078-0.285 0-0.156-0.058-0.287-0.173-0.392-0.114-0.106-0.262-0.16-0.442-0.16-0.199 0-0.358 0.057-0.476 0.17-0.118 0.112-0.177 0.265-0.177 0.459 0 0.079 0.019 0.161 0.056 0.246 0.038 0.085 0.106 0.188 0.202 0.309-0.183 0.131-0.306 0.245-0.369 0.341zM12.156 32.081c-0.121 0.093-0.251 0.139-0.391 0.139-0.123 0-0.222-0.036-0.296-0.107s-0.11-0.164-0.11-0.279c0-0.132 0.068-0.25 0.204-0.353l0.053-0.037 0.54 0.637zM11.713 30.985c-0.117-0.144-0.175-0.263-0.175-0.358 0-0.083 0.024-0.151 0.071-0.206s0.111-0.082 0.192-0.082c0.075 0 0.136 0.023 0.185 0.070 0.049 0.045 0.073 0.1 0.073 0.165 0 0.097-0.035 0.177-0.105 0.239l-0.053 0.042-0.189 0.129zM15.738 32.328c0.17-0.148 0.267-0.354 0.292-0.618h-0.428c-0.023 0.177-0.076 0.303-0.161 0.379s-0.212 0.114-0.38 0.114c-0.185 0-0.325-0.070-0.421-0.211-0.095-0.14-0.143-0.344-0.143-0.611v-0.219c0.002-0.264 0.053-0.464 0.153-0.599 0.101-0.137 0.245-0.206 0.431-0.206 0.161 0 0.283 0.040 0.365 0.119 0.084 0.078 0.136 0.206 0.156 0.384h0.428c-0.027-0.271-0.124-0.48-0.29-0.628s-0.386-0.222-0.659-0.222c-0.203 0-0.382 0.048-0.537 0.144-0.154 0.096-0.272 0.233-0.355 0.411s-0.124 0.383-0.124 0.616v0.231c0.003 0.228 0.046 0.427 0.127 0.599s0.197 0.305 0.346 0.399c0.151 0.093 0.324 0.139 0.521 0.139 0.282 0 0.508-0.074 0.678-0.221zM18.263 31.982c0.084-0.183 0.126-0.396 0.126-0.639v-0.138c-0.001-0.241-0.044-0.452-0.129-0.634-0.085-0.182-0.206-0.322-0.362-0.418-0.155-0.097-0.333-0.146-0.535-0.146s-0.38 0.049-0.537 0.148c-0.155 0.097-0.276 0.238-0.362 0.423-0.085 0.185-0.127 0.397-0.127 0.639v0.139c0.001 0.237 0.044 0.446 0.129 0.627 0.086 0.181 0.207 0.321 0.363 0.42 0.157 0.097 0.336 0.146 0.537 0.146 0.203 0 0.382-0.049 0.537-0.146 0.156-0.099 0.276-0.239 0.36-0.421zM17.803 30.584c0.104 0.146 0.156 0.356 0.156 0.63v0.129c0 0.279-0.052 0.49-0.155 0.635-0.102 0.145-0.248 0.217-0.438 0.217-0.188 0-0.335-0.074-0.442-0.222-0.105-0.148-0.158-0.358-0.158-0.63v-0.143c0.002-0.266 0.055-0.472 0.16-0.616 0.105-0.146 0.251-0.219 0.437-0.219 0.19 0 0.337 0.073 0.44 0.219z"></path>
</svg>
