<!-- Generated by IcoMoon.io -->
<svg version="1.1" xmlns="http://www.w3.org/2000/svg" width="31" height="32" viewBox="0 0 31 32">
<title>reloj-1</title>
<path d="M29.317 13.732c-0.002-7.585-6.152-13.733-13.738-13.732s-13.733 6.152-13.732 13.738c0.001 5.975 3.865 11.264 9.557 13.081 0.054 0.017 0.111 0.026 0.168 0.026 0.108-0 0.214-0.029 0.307-0.084 0.121-0.072 0.212-0.186 0.254-0.32l3.469-10.994c0.948-0.005 1.713-0.778 1.708-1.726s-0.777-1.713-1.726-1.708c-0.255 0.001-0.507 0.060-0.736 0.172l-4.582-4.583c-0.227-0.22-0.59-0.213-0.809 0.014-0.214 0.222-0.214 0.573 0 0.795l4.58 4.585c-0.351 0.717-0.151 1.583 0.481 2.072l-3.305 10.476c-6.531-2.406-9.876-9.651-7.47-16.182s9.651-9.876 16.182-7.47 9.876 9.651 7.47 16.182c-1.175 3.191-3.591 5.772-6.697 7.156l-0.357-1.682c-0.065-0.309-0.369-0.507-0.678-0.441-0.098 0.021-0.188 0.067-0.262 0.133l-3.443 3.074c-0.236 0.21-0.257 0.572-0.047 0.808 0.068 0.077 0.156 0.134 0.254 0.165l4.396 1.403c0.301 0.097 0.623-0.069 0.72-0.37 0.031-0.095 0.036-0.196 0.015-0.294l-0.351-1.65c5.083-2.143 8.384-7.128 8.372-12.644zM15.583 13.16c0.316 0 0.572 0.256 0.572 0.572s-0.256 0.572-0.572 0.572c-0.316 0-0.572-0.256-0.572-0.572s0.256-0.572 0.572-0.572zM17.468 26.499l1.96-1.748 0.541 2.549-2.501-0.801z"></path>
<path d="M15.010 2.858v1.145c0 0.316 0.256 0.572 0.572 0.572s0.572-0.256 0.572-0.572v-1.145c0-0.316-0.256-0.572-0.572-0.572s-0.572 0.256-0.572 0.572z"></path>
<path d="M4.709 13.16c-0.316 0-0.572 0.256-0.572 0.572s0.256 0.572 0.572 0.572h1.145c0.316 0 0.572-0.256 0.572-0.572s-0.256-0.572-0.572-0.572h-1.145z"></path>
<path d="M26.456 14.304c0.316 0 0.572-0.256 0.572-0.572s-0.256-0.572-0.572-0.572h-1.145c-0.316 0-0.572 0.256-0.572 0.572s0.256 0.572 0.572 0.572h1.145z"></path>
</svg>
